<svg version="1.1" id="图层_1" xmlns="http://www.w3.org/2000/svg" xmlns:xlink="http://www.w3.org/1999/xlink" x="0px" y="0px" viewBox="0 0 36 36" style="enable-background:new 0 0 36 36;" xml:space="preserve">
 <style type="text/css">
   .st0{fill-rule:evenodd;clip-rule:evenodd;}
 </style>
    <path id="path-1_1_" class="st0" d="M27,20c-4.4,0-8,3.6-8,8h-9c-1.7,0-3-1.3-3-3V10c0-1.7,1.3-3,3-3h14c1.7,0,3,1.3,3,3V20z
    M12.5,12c-0.8,0-1.5,0.7-1.5,1.5s0.7,1.5,1.5,1.5h9c0.8,0,1.5-0.7,1.5-1.5S22.3,12,21.5,12H12.5z M12.5,18c-0.8,0-1.5,0.7-1.5,1.5
   s0.7,1.5,1.5,1.5h4c0.8,0,1.5-0.7,1.5-1.5S17.3,18,16.5,18H12.5z M24,25v-2c0-0.6,0.4-1,1-1s1,0.4,1,1v2h2c0.6,0,1,0.4,1,1
   s-0.4,1-1,1h-2v2c0,0.6-0.4,1-1,1s-1-0.4-1-1v-2h-2c-0.6,0-1-0.4-1-1s0.4-1,1-1H24z"></path>
 </svg>