<svg version="1.1" id="图层_1" xmlns="http://www.w3.org/2000/svg" xmlns:xlink="http://www.w3.org/1999/xlink" x="0px" y="0px" viewBox="0 0 36 36" style="enable-background:new 0 0 36 36;" xml:space="preserve">
<style type="text/css">
.st0{fill-rule:evenodd;clip-rule:evenodd;}
</style>
    <path id="path-1_1_" class="st0" d="M21.1,22.3c0.7-0.8,1.8-1.3,2.9-1.3c2.2,0,4,1.8,4,4s-1.8,4-4,4s-4-1.8-4-4c0-0.3,0-0.6,0.1-1
l-6.2-3.3C13.2,21.5,12.2,22,11,22c-2.2,0-4-1.8-4-4s1.8-4,4-4c1.1,0,2.1,0.4,2.8,1.1l6.4-3.9C20.1,10.8,20,10.4,20,10
c0-2.2,1.8-4,4-4s4,1.8,4,4s-1.8,4-4,4c-1.1,0-2.1-0.4-2.8-1.1l-6.4,3.9c0.1,0.4,0.2,0.8,0.2,1.2c0,0.3,0,0.6-0.1,1L21.1,22.3z"></path>
</svg>