<svg width="32" height="32" viewBox="0 0 32 32" fill="none" xmlns="http://www.w3.org/2000/svg">
<g clip-path="url(#clip0_105_11253)">
<path d="M21.2413 4H10.7587C9.47714 3.99996 8.20817 4.25236 7.02417 4.74277C5.84017 5.23317 4.76434 5.952 3.85815 6.85819C2.95196 7.76438 2.23313 8.84017 1.74273 10.0242C1.25232 11.2082 0.999957 12.4772 1 13.7587C0.999957 15.0403 1.25232 16.3093 1.74273 17.4933C2.23313 18.6773 2.95196 19.7531 3.85815 20.6593C4.76434 21.5654 5.84017 22.2843 7.02417 22.7747C8.20817 23.2651 9.47714 23.5174 10.7587 23.5174H19.4869V26.8695C19.4869 26.9991 19.5244 27.126 19.5949 27.2348C19.6653 27.3437 19.7657 27.4298 19.884 27.4829C20.0023 27.536 20.1334 27.5538 20.2615 27.5342C20.3897 27.5145 20.5094 27.4582 20.6063 27.3721L27.9429 20.8503C28.9093 19.9396 29.6791 18.8408 30.2049 17.6214C30.7306 16.402 31.0012 15.0879 31 13.76C31.0002 12.4784 30.748 11.2092 30.2576 10.0251C29.7673 8.84093 29.0485 7.76495 28.1423 6.85862C27.2361 5.9523 26.1602 5.23337 24.9761 4.74289C23.7921 4.2524 22.5229 3.99996 21.2413 4Z" fill="#03C75A"/>
<path d="M19.4719 15.2321C19.1918 15.2321 18.9179 15.1488 18.6849 14.9927C18.4519 14.8366 18.2703 14.6147 18.1631 14.3551C18.0559 14.0955 18.0279 13.8098 18.0825 13.5342C18.1372 13.2586 18.2721 13.0055 18.4702 12.8068C18.6684 12.6081 18.9208 12.4727 19.1956 12.4179C19.4704 12.3631 19.7552 12.3912 20.0141 12.4988C20.273 12.6063 20.4942 12.7884 20.6499 13.022C20.8056 13.2557 20.8886 13.5304 20.8886 13.8114C20.8886 14.1882 20.7394 14.5496 20.4737 14.816C20.208 15.0825 19.8477 15.2321 19.4719 15.2321Z" fill="white"/>
<path d="M22.5407 18.3109C22.2605 18.3108 21.9867 18.2274 21.7538 18.0713C21.5208 17.9151 21.3393 17.6932 21.2321 17.4336C21.125 17.174 21.0969 16.8883 21.1516 16.6127C21.2063 16.3371 21.3413 16.084 21.5394 15.8854C21.7376 15.6867 21.99 15.5514 22.2648 15.4966C22.5396 15.4418 22.8244 15.47 23.0833 15.5776C23.3421 15.6851 23.5633 15.8672 23.719 16.1008C23.8746 16.3345 23.9577 16.6091 23.9577 16.8901C23.9577 17.0767 23.9211 17.2615 23.8499 17.4339C23.7786 17.6063 23.6743 17.7629 23.5427 17.8949C23.4111 18.0268 23.2549 18.1315 23.0829 18.2029C22.911 18.2742 22.7268 18.3109 22.5407 18.3109Z" fill="white"/>
<path d="M22.541 12.1537C22.2608 12.1537 21.987 12.0703 21.754 11.9142C21.521 11.7581 21.3395 11.5362 21.2322 11.2766C21.125 11.017 21.0969 10.7313 21.1516 10.4557C21.2063 10.1801 21.3412 9.92697 21.5393 9.72827C21.7374 9.52957 21.9899 9.39426 22.2647 9.33944C22.5395 9.28462 22.8243 9.31273 23.0832 9.42026C23.3421 9.5278 23.5633 9.70989 23.719 9.94353C23.8746 10.1772 23.9577 10.4519 23.9577 10.7329C23.9578 10.9195 23.9211 11.1043 23.85 11.2767C23.7788 11.4491 23.6745 11.6057 23.5429 11.7376C23.4113 11.8696 23.2551 11.9742 23.0832 12.0456C22.9113 12.117 22.7271 12.1537 22.541 12.1537Z" fill="white"/>
<path d="M25.6102 15.2322C25.33 15.2322 25.0561 15.1488 24.8231 14.9927C24.5901 14.8366 24.4086 14.6147 24.3013 14.3551C24.1941 14.0955 24.166 13.8098 24.2207 13.5342C24.2753 13.2586 24.4103 13.0055 24.6084 12.8068C24.8065 12.6081 25.059 12.4727 25.3338 12.4179C25.6086 12.3631 25.8934 12.3912 26.1523 12.4988C26.4111 12.6063 26.6324 12.7884 26.7881 13.022C26.9437 13.2557 27.0268 13.5304 27.0268 13.8114C27.0268 14.1882 26.8776 14.5496 26.6119 14.816C26.3462 15.0825 25.9859 15.2322 25.6102 15.2322Z" fill="white"/>
<path d="M12.9115 12.5614H6.24483C5.55447 12.5614 4.99483 13.121 4.99483 13.8114C4.99483 14.5018 5.55447 15.0614 6.24483 15.0614H12.9115C13.6019 15.0614 14.1615 14.5018 14.1615 13.8114C14.1615 13.121 13.6018 12.5614 12.9115 12.5614Z" fill="white"/>
<path d="M10.8284 17.1448V10.4781C10.8284 9.78779 10.2688 9.22815 9.57843 9.22815C8.88807 9.22815 8.32843 9.7878 8.32843 10.4782V17.1448C8.32843 17.8352 8.88807 18.3948 9.57843 18.3948C10.2688 18.3948 10.8284 17.8352 10.8284 17.1448Z" fill="white"/>
</g>
<defs>
<clipPath id="clip0_105_11253">
<rect width="32" height="32" fill="white"/>
</clipPath>
</defs>
</svg>
